<?xml version="1.0" encoding="utf-8"?>
<!-- Generator: Adobe Illustrator 24.1.1, SVG Export Plug-In . SVG Version: 6.00 Build 0)  -->
<svg version="1.1" id="Слой_1" xmlns="http://www.w3.org/2000/svg" xmlns:xlink="http://www.w3.org/1999/xlink" x="0px" y="0px"
	 viewBox="0 0 66.1 72.3" style="enable-background:new 0 0 66.1 72.3;" xml:space="preserve">
<style type="text/css">
	.st0{fill:#121426}
</style>
<g>
	<path class="st0" d="M33.7,72.3c-1.8,0-3.6-0.4-5.2-1.3L6.3,58.9c-3.4-1.9-5.6-5.4-5.7-9.3L0,24.3c-0.1-3.9,1.9-7.5,5.2-9.6
		L26.8,1.6c3.3-2,7.5-2.1,10.9-0.3l22.2,12.1c3.4,1.9,5.6,5.4,5.7,9.3L66.1,48c0.1,3.9-1.9,7.5-5.2,9.6L39.4,70.7
		C37.6,71.7,35.7,72.3,33.7,72.3z M32.5,0.7c-1.8,0-3.7,0.5-5.3,1.5L5.6,15.4c-3.1,1.9-4.9,5.3-4.9,8.9l0.6,25.2
		c0.1,3.6,2.1,6.9,5.3,8.7l22.2,12.1C32,72,35.9,71.9,39,70l21.6-13.2c3.1-1.9,4.9-5.3,4.9-8.9l-0.6-25.2c-0.1-3.6-2.1-6.9-5.3-8.7
		L37.3,2C35.8,1.2,34.1,0.7,32.5,0.7z"/>
</g>
</svg>
