<svg fill="none" xmlns="http://www.w3.org/2000/svg" viewBox="0 0 257 270">
  <path d="M116.3 269.1c-8.6 0-17.9-2.7-25-8.1l-74.8-57A41.2 41.2 0 01.3 166l11.9-93.2a41.6 41.6 0 0125-33.1l86.7-36.3c13.6-6 29.3-3.8 40.7 4.8l75.4 57a41.2 41.2 0 0116.3 38l-12 93.2a41.6 41.6 0 01-25 33.1L132.7 266a43.5 43.5 0 01-16.3 3.2zM139.7 4c-5 0-9.8 1-14.7 2.7L38.8 43.5a37.3 37.3 0 00-22.3 29.8L4.6 166.6a37 37 0 0014.6 34.2l74.9 57c10.3 8 25 9.7 36.9 4.8l86.8-36.3a36.8 36.8 0 0022.2-29.9l12-93.2A37 37 0 00237.2 69l-74.9-57.5a38.3 38.3 0 00-22.7-7.6z" fill="#121426"/>
</svg>
