<svg width="34" height="34" viewBox="0 0 34 34" fill="none" xmlns="http://www.w3.org/2000/svg">
<path d="M31.5833 14.9168H19.0833V2.41683C19.0833 1.8643 18.8638 1.33439 18.4731 0.943691C18.0824 0.55299 17.5525 0.333496 17 0.333496C16.4474 0.333496 15.9175 0.55299 15.5268 0.943691C15.1361 1.33439 14.9166 1.8643 14.9166 2.41683V14.9168H2.41665C1.86411 14.9168 1.33421 15.1363 0.943508 15.527C0.552807 15.9177 0.333313 16.4476 0.333313 17.0002C0.333313 17.5527 0.552807 18.0826 0.943508 18.4733C1.33421 18.864 1.86411 19.0835 2.41665 19.0835H14.9166V31.5835C14.9166 32.136 15.1361 32.6659 15.5268 33.0566C15.9175 33.4473 16.4474 33.6668 17 33.6668C17.5525 33.6668 18.0824 33.4473 18.4731 33.0566C18.8638 32.6659 19.0833 32.136 19.0833 31.5835V19.0835H31.5833C32.1358 19.0835 32.6658 18.864 33.0565 18.4733C33.4472 18.0826 33.6666 17.5527 33.6666 17.0002C33.6666 16.4476 33.4472 15.9177 33.0565 15.527C32.6658 15.1363 32.1358 14.9168 31.5833 14.9168Z" fill="#374957"/>
</svg>
