<svg xmlns="http://www.w3.org/2000/svg" fill="none" viewBox="0 0 40 40">
  <path fill="#7E8FBF" d="M36.7 0H3.3A3.3 3.3 0 0 0 0 3.3v33.4C0 38.5 1.5 40 3.3 40h33.4c1.8 0 3.3-1.5 3.3-3.3V3.3C40 1.5 38.5 0 36.7 0Zm-2.5 28.8h-4.4l-3.1-3.2c-2-1.9-2.8-2-3.3-2-.4 0-.7.3-.7 1v3c0 .8-.5 1.2-2.5 1.2-3.4 0-7-2.1-10-6A24.7 24.7 0 0 1 5 12.2c0-.5.4-.8.9-.8h4.5l.4 1.2c1.6 4.5 4.4 8.6 5.6 8.6.4 0 .5-.4.5-1.3V15c0-2.3-1.3-2.4-1.3-3.3v-.6h7v7.5c0 .8.2 1 .5 1 .4 0 .8-.2 1.5-1 2.2-2.5 4-6.4 4-6.4l.5-.9h4.3c.7 0 1 .4.9 1-.4 1.9-4.4 7.4-4.4 7.4-.3.6-.5 1 0 1.5l2.2 2.4C34 25.5 35 27 35 27.9c0 .7-.4.9-.8.9Z"/>
</svg>
