<svg width="40" height="40" viewBox="0 0 40 40" fill="none" xmlns="http://www.w3.org/2000/svg">
<rect x="3" y="6" width="30" height="28" fill="white"/>
<path d="M36.6665 0H3.3335C1.5005 0 0 1.5005 0 3.3335V36.6665C0 38.4995 1.5005 40 3.3335 40H36.6665C38.4995 40 40 38.4995 40 36.6665V3.3335C40 1.5005 38.4995 0 36.6665 0ZM34.2415 28.75H29.7915L26.6765 25.648C24.733 23.737 23.903 23.5875 23.4315 23.5875C23.0115 23.5875 22.7215 23.9 22.7215 24.6305V27.5525C22.7215 28.412 22.227 28.7505 20.186 28.7505C16.833 28.7505 13.1155 26.69 10.29 22.883C6.074 17.2215 5 12.998 5 12.085C5 11.5885 5.3675 11.25 5.8655 11.25H10.4455L10.8395 12.451C12.4085 17.0395 15.211 21.0805 16.39 21.0805C16.8325 21.0805 16.8845 20.7175 16.8845 19.7785V15.1105C16.8845 12.848 15.602 12.6595 15.602 11.8225V11.25H22.617V18.7355C22.617 19.458 22.767 19.7265 23.089 19.7265C23.4895 19.7265 23.857 19.486 24.583 18.683C26.839 16.2045 28.691 12.269 28.691 12.269L29.0815 11.432H33.4305C34.1105 11.432 34.3975 11.8 34.267 12.451C33.873 14.274 29.9215 19.8305 29.9215 19.8305C29.557 20.405 29.3975 20.7175 29.9215 21.2645C30.289 21.7345 31.4415 22.7525 32.1445 23.6915C33.873 25.516 34.9995 27.0545 34.9995 27.9165C35 28.568 34.6355 28.75 34.2415 28.75Z" fill="#0077FF"/>
</svg>
