<svg width="40" height="40" viewBox="0 0 40 40" fill="none" xmlns="http://www.w3.org/2000/svg">
<g clip-path="url(#clip0_719_244)">
<rect x="6" y="5" width="27" height="26" fill="white"/>
<path d="M36.6699 0H3.33488C2.45551 0.00390814 1.61304 0.353949 0.989822 0.974362C0.366602 1.59477 0.012761 2.43565 0.00488281 3.315V36.665C0.0075207 37.5487 0.359733 38.3954 0.984596 39.0203C1.60946 39.6451 2.4562 39.9974 3.33988 40H36.6699C37.5536 39.9974 38.4003 39.6451 39.0252 39.0203C39.65 38.3954 40.0022 37.5487 40.0049 36.665V3.315C39.9983 2.43438 39.6442 1.592 39.0196 0.971167C38.395 0.350334 37.5505 0.00129367 36.6699 0ZM26.3399 21.445C23.2249 23.08 19.6549 24.84 16.1149 26.695C15.8769 26.8194 15.6108 26.8805 15.3424 26.8724C15.074 26.8642 14.8121 26.7871 14.5821 26.6485C14.3521 26.5099 14.1616 26.3144 14.029 26.0808C13.8964 25.8473 13.8261 25.5836 13.8249 25.315V14.685C13.8278 14.4173 13.8993 14.1548 14.0326 13.9226C14.1659 13.6904 14.3566 13.4963 14.5863 13.3589C14.8161 13.2214 15.0773 13.1452 15.3449 13.1375C15.6125 13.1299 15.8776 13.191 16.1149 13.315L26.3449 18.675C26.597 18.8082 26.8079 19.0078 26.9549 19.2521C27.1018 19.4965 27.1792 19.7764 27.1787 20.0615C27.1782 20.3467 27.0998 20.6262 26.9519 20.8701C26.8041 21.1139 26.5925 21.3127 26.3399 21.445Z" fill="#FF0000"/>
</g>
<defs>
<clipPath id="clip0_719_244">
<rect width="40" height="40" fill="white"/>
</clipPath>
</defs>
</svg>
