<svg fill="none" xmlns="http://www.w3.org/2000/svg" viewBox="0 0 321 103">
  <path d="M311.7 1.9c4 0 7.3 3 7.3 6.7v85.8c0 3.7-3.2 6.8-7.3 6.8H9.3c-4 0-7.3-3-7.3-6.8V8.6C2 5 5.3 2 9.3 2h302.4zm0-1.9H9.3C4.2 0 0 3.9 0 8.6v85.8C0 99 4.2 103 9.3 103h302.4c5.1 0 9.3-3.9 9.3-8.6V8.6c0-4.7-4.2-8.6-9.3-8.6z" fill="#000"/>
  <path d="M124.7 19.5c.7.3 1.4.7 2.1 1.4l-1.6 2c-1-1-2-1.3-3-1.3-1.1 0-2.1.5-2.8 1.5-.8 1-1.1 2.7-1.1 5 0 2 .3 3.7 1 4.7.8 1 1.8 1.6 3 1.6.6 0 1.2-.1 1.7-.4.5-.2 1-.6 1.5-1l1.5 2c-.6.5-1.2 1-2 1.4-1 .4-1.8.6-2.9.6a6.5 6.5 0 01-6.2-4.1c-.6-1.4-.9-3-.9-5 0-1.8.3-3.4 1-4.8a7 7 0 012.5-3 6.6 6.6 0 016.2-.6zM140.6 24l-3.6 6 4 7h-3.4l-3.1-5.8H133V37H130V24h3v5.1h1.5l3-5.1h3.1zM153.2 34.4c.2.3.5.4.8.6l-.7 2c-.8-.1-1.4-.3-1.9-.6-.4-.3-.8-.7-1-1.3-.5.6-1 1.1-1.8 1.4-.7.3-1.4.5-2.3.5-1.3 0-2.3-.3-3.1-1a3.5 3.5 0 01-1.2-2.8c0-1.3.5-2.4 1.6-3 1-.7 2.5-1.1 4.5-1.1h1.7v-.7c0-.8-.2-1.3-.6-1.7-.4-.3-1-.4-2-.4-.9 0-2 .2-3.5.6l-.7-2c1.7-.6 3.3-.9 4.9-.9 3.4 0 5 1.4 5 4.3v5l.3 1.1zm-3.4-1.1v-2.5h-1.3c-2.1 0-3.1.7-3.1 2.1 0 .6.1 1.1.4 1.4.3.3.8.5 1.5.5 1 0 1.9-.5 2.5-1.5zM166 24v13h-3.2v-5.1c-.5.4-1.1.7-1.8 1-.7.2-1.4.3-2.2.3-1.3 0-2.2-.3-2.8-1a4 4 0 01-1-3V24h3.2v4.9c0 .7.2 1.2.5 1.5.2.3.7.4 1.3.4.4 0 1 0 1.5-.3.5-.2 1-.4 1.3-.8V24h3.2zM180.2 34.4c.2.3.5.4.8.6l-.7 2c-.8-.1-1.4-.3-1.9-.6-.4-.3-.8-.7-1-1.3-.5.6-1 1.1-1.8 1.4-.7.4-1.4.5-2.3.5-1.3 0-2.3-.3-3.1-1a3.5 3.5 0 01-1.2-2.8c0-1.3.5-2.4 1.6-3 1-.7 2.5-1.1 4.5-1.1h1.7v-.7c0-.8-.2-1.3-.6-1.7-.4-.3-1-.4-2-.4-.9 0-2 .2-3.5.6l-.7-2c1.7-.6 3.3-.9 4.9-.9 3.4 0 5 1.4 5 4.3v5c0 .6.2.9.3 1.1zm-3.4-1.1v-2.5h-1.3c-2.1 0-3.1.7-3.1 2.1 0 .6.1 1.1.4 1.4.3.3.8.5 1.5.5 1 0 1.9-.5 2.5-1.5zM193 24l-.4 2.4h-4V37h-3.4V26.4H181V24h12zM203.6 29.2c1 .8 1.4 2 1.4 3.4s-.5 2.5-1.5 3.3c-1 .7-2.2 1.1-3.7 1.1H195V24h3v4.1h1.3c2 0 3.4.4 4.3 1.1zm-1.8 3.3c0-.8-.2-1.4-.6-1.7-.3-.4-1-.6-2-.6H198v4.6h1.5c1.5 0 2.3-.8 2.3-2.3zM225 33.1c0 1.3-.5 2.3-1.6 3-1 .6-2.4.9-4.2.9H214V24.5c1.8-.3 3.4-.5 4.8-.5 1.7 0 3 .3 4 .9 1 .6 1.5 1.4 1.5 2.6 0 .7-.2 1.2-.6 1.7-.5.4-1.2.7-2.1.9 2.3.2 3.4 1.2 3.4 3zm-7.8-6.9v3.2h1.9c1.4 0 2-.6 2-1.7 0-1-.7-1.6-2.3-1.6l-1.6.1zm4.5 6.7c0-.6-.2-1-.6-1.3-.3-.3-1-.4-1.9-.4h-2v3.6h2c1.6 0 2.5-.6 2.5-1.9zM47.2 85C37.2 85 29 64.4 29 54c0-17 12.7-20.8 17.6-20.8 2.2 0 4.6.9 6.7 1.6 1.4.5 3 1.1 3.8 1.1.5 0 1.7-.5 2.7-.9 2.2-.9 5-2 8.2-2 2.4 0 9.7.5 14.1 7.2l1 1.5-1.5 1.1c-2 1.6-6 4.5-6 10.4 0 6.8 4.4 9.4 6.5 10.7 1 .6 1.9 1.2 1.9 2.4 0 .9-6.5 18.6-16 18.6-2.4 0-4-.7-5.4-1.4-1.5-.6-2.8-1.1-4.9-1.1-1 0-2.4.5-3.8 1-1.9.8-4.1 1.6-6.6 1.6zM69 17c.2 9-5.9 15.4-12 15-.9-7.2 6.2-15 12-15zM150.6 60.4c-1.3 0-2.4.4-3.4 1.2-1 .8-1.6 1.9-2 3.2l-.1 1.5V70c0 1.6.5 3 1.4 4a5 5 0 003.9 1.7c1.9 0 3.3-.7 4.4-2.2 1-1.4 1.5-3.3 1.5-5.6 0-2.1-.4-4-1.4-5.3a5.2 5.2 0 00-4.3-2.2zm90.2-.3a5 5 0 00-4.5 2.6 9.7 9.7 0 00-1.4 5.3c0 2 .5 3.8 1.4 5.3a5 5 0 004.5 2.6c1.9 0 3.3-.9 4.4-2.7 1-1.5 1.4-3.2 1.4-5.3 0-2-.4-3.7-1.3-5.2a5 5 0 00-4.5-2.6zm-65.8.3c-1.2 0-2.3.4-3.3 1.2-1 .8-1.6 1.9-2 3.2l-.2 1.5V70c0 1.6.5 3 1.5 4a5 5 0 003.9 1.7 5 5 0 004.3-2.2c1-1.4 1.6-3.3 1.6-5.6 0-2.1-.5-4-1.5-5.3a5.2 5.2 0 00-4.3-2.2zM124 52.5h-.1l-1.5 5.8-2.5 8h8.2l-2.6-8-1.5-5.8zM278.3 60c-1.6 0-2.9.7-4 2-.7 1-1.2 2.3-1.4 3.8h10.3c0-1.5-.3-2.7-1-3.8-.8-1.3-2-2-3.9-2zM131.8 79l-2.9-9h-10l-2.8 9H111l10-30.6h6L137.2 79h-5.3zm26.5-2.5a9.1 9.1 0 01-6.9 3c-3 0-5-1.1-6.4-3.2V88h-4.9V64.2c0-2.3 0-4.8-.2-7.2h4.4l.3 3.5c1.7-2.6 4.2-4 7.6-4 2.6 0 4.8 1 6.6 3.1a12 12 0 012.6 8.1c0 3.8-1 6.8-3.1 9zm24.4 0a9.1 9.1 0 01-6.8 3c-3 0-5-1.1-6.4-3.2V88h-5V64.2l-.1-7.2h4.3l.3 3.5h.1c1.7-2.6 4.2-4 7.5-4 2.7 0 4.9 1 6.6 3.1a12 12 0 012.7 8.1c0 3.8-1 6.8-3.2 9zm28.3.2c-2 1.8-4.8 2.7-8.4 2.7-3.3 0-6-.6-8-1.9l1.2-4c2.2 1.2 4.5 1.8 7.2 1.8a7 7 0 004.3-1.2 4 4 0 001.6-3.4c0-1.2-.5-2.2-1.3-3-.9-1-2.3-1.7-4.3-2.4-5.4-2-8-5-8-8.8 0-2.5.9-4.6 2.8-6.2 1.9-1.6 4.4-2.4 7.6-2.4 2.8 0 5.1.5 7 1.5l-1.2 4c-1.8-1-3.8-1.4-6-1.4-1.7 0-3 .4-4 1.2-.9.8-1.3 1.7-1.3 2.8 0 1.2.5 2.2 1.4 3a17 17 0 004.5 2.4 15 15 0 015.9 3.7 7.8 7.8 0 011.8 5.4c0 2.5-1 4.6-2.8 6.2zm17.5-16.1H223v10.7c0 2.7 1 4 3 4 .8 0 1.5 0 2.1-.2l.1 3.7c-1 .4-2.2.6-3.8.6a6 6 0 01-4.6-1.8c-1.1-1.1-1.7-3.1-1.7-6v-11H215V57h3.2v-4l4.9-1.5V57h5.5v3.7zm20.3 15.5c-2 2.3-4.8 3.4-8.1 3.4s-6-1-7.9-3.3c-1.9-2.1-2.9-4.8-2.9-8.1 0-3.4 1-6.2 3-8.4s4.7-3.3 8.1-3.3c3.3 0 6 1 8 3.3 1.8 2 2.8 4.7 2.8 8 0 3.4-1 6.2-3 8.4zm17.8-15H265c-1.7 0-3 .6-4 2a7.3 7.3 0 00-1.2 4.3V79h-5V64l-.1-7h4.3l.2 4.2h.1a7.3 7.3 0 012.5-3.5 5.9 5.9 0 013.6-1.1h1.2v4.7zm21.2 8h-14.9c.1 2.2.8 3.8 2.2 5 1.3 1 2.9 1.5 4.9 1.5a16 16 0 006-1l.7 3.4c-2 1-4.5 1.4-7.4 1.4-3.5 0-6.2-1-8.1-3-2-2-3-4.8-3-8.2 0-3.3 1-6 2.8-8.3 2-2.4 4.5-3.5 7.7-3.5 3.3 0 5.7 1.1 7.3 3.5 1.3 1.9 2 4.2 2 7 0 .9 0 1.6-.2 2.2z" fill="#000"/>
</svg>
