<svg fill="none" xmlns="http://www.w3.org/2000/svg" viewBox="0 0 375 102">
  <path d="M27.8 15a6.3 6.3 0 00-6.1-.3l33 33.3 10.8-11-37.7-22zm-9.2 2.7c-.4 1-.6 1.9-.6 3v60.8c0 1 .2 2 .6 2.9l33-33.4-33-33.3zm36.1 36.4l-33 33.3a6.5 6.5 0 006.1-.3L65.5 65 54.7 54zm25.2-8.7l-10.5-6.1L57.8 51l11.6 11.7 10.5-6.1c2-1.2 3.1-3.3 3.1-5.6s-1.2-4.4-3.1-5.6z" fill="#000"/>
  <path d="M365 2c4.3 0 7.8 3.3 7.8 7.3v83.4c0 4-3.5 7.3-7.9 7.3H10c-4.3 0-7.8-3.3-7.8-7.3V9.3C2.2 5.3 5.7 2 10 2h355zm0-2H10C4.5 0 0 4.2 0 9.3v83.4c0 5.1 4.5 9.3 10 9.3h355c5.5 0 10-4.2 10-9.3V9.3c0-5.1-4.5-9.3-10-9.3z" fill="#000"/>
  <path d="M146 63c0 4.9-1.5 8.8-4.4 11.8a17.3 17.3 0 01-13.1 5.2c-5.2 0-9.5-1.8-13.1-5.3-3.6-3.6-5.4-8-5.4-13.2 0-5.3 1.8-9.7 5.4-13.2a18.8 18.8 0 0120.4-3.8c2.3 1 4.2 2.3 5.6 4l-3.1 3a12.1 12.1 0 00-9.8-4.2c-3.7 0-7 1.3-9.7 4-2.7 2.6-4.1 6-4.1 10.2 0 4.2 1.4 7.6 4.1 10.2 2.7 2.7 6 4 9.7 4 4 0 7.3-1.4 10-4 1.7-1.7 2.7-4.1 3-7.2h-13v-4.3h17.3l.2 2.7zM151.4 58.6c2.3-2.4 5.1-3.6 8.6-3.6s6.4 1.2 8.6 3.6c2.3 2.3 3.4 5.3 3.4 8.9 0 3.6-1.1 6.6-3.4 9A11.4 11.4 0 01160 80c-3.5 0-6.4-1.2-8.6-3.6a12.4 12.4 0 01-3.4-8.9c0-3.6 1.1-6.6 3.4-9zm3.3 15a7.2 7.2 0 0010.7 0 8.4 8.4 0 002.2-6.1c0-2.6-.7-4.7-2.3-6.2A7.2 7.2 0 00160 59c-2 0-3.8.7-5.3 2.3a8.5 8.5 0 00-2.3 6.2c0 2.6.7 4.6 2.3 6.1zM177.5 58.6c2.4-2.4 5.4-3.6 9-3.6A12 12 0 01199 67.5 12.1 12.1 0 01186.5 80 12 12 0 01174 67.5c0-3.6 1.2-6.6 3.5-9zm3.4 15a7.7 7.7 0 005.6 2.4c2.1 0 4-.8 5.6-2.4a8.2 8.2 0 002.3-6.1c0-2.6-.8-4.7-2.3-6.2a7.7 7.7 0 00-5.6-2.3c-2.1 0-4 .7-5.6 2.3a8.3 8.3 0 00-2.3 6.2c0 2.6.8 4.6 2.3 6.1zM211.8 90a11 11 0 01-7-2c-1.7-1.5-3-3-3.8-4.8l4-1.7a7.1 7.1 0 006.7 4.5c2.5 0 4.5-.7 5.9-2.1a8 8 0 002.1-6v-2.1h-.2a10.2 10.2 0 01-8.1 4c-3.1 0-5.8-1.2-8-3.6a12.3 12.3 0 01-3.4-8.8c0-3.5 1.1-6.5 3.4-8.8a10.7 10.7 0 0112.8-2.5 9 9 0 013.3 3h.2v-3.3h4.3v22c0 4-1.2 7-3.6 9.2a13 13 0 01-8.6 3zm.3-14.2c2.1 0 4-.8 5.4-2.3a8.3 8.3 0 002.2-6.2c0-2.5-.7-4.6-2.2-6a7.2 7.2 0 00-5.4-2.4c-2 0-3.8.8-5.3 2.3a8.5 8.5 0 00-2.3 6.1c0 2.6.8 4.6 2.3 6.2a7.3 7.3 0 005.3 2.3zM232 79h-4V44h4v35zM247.5 80A12 12 0 01235 67.5c0-3.4 1.1-6.4 3.4-8.8 2.2-2.5 5.1-3.7 8.6-3.7 3.7 0 6.5 1.1 8.7 3.4 2.2 2.3 3.3 5.3 3.3 9.1v.8h-19.4a7.7 7.7 0 007.8 7.7c3.3 0 5.5-1.3 6.7-4l4 1.6c-.7 1.8-2 3.4-3.9 4.6-1.7 1.2-4 1.8-6.7 1.8zm6.6-15.3a6 6 0 00-1.9-3.8c-1.2-1.3-3-1.9-5.3-1.9a7 7 0 00-4.4 1.6 8 8 0 00-2.6 4h14.2zM277.3 79H273V44h11.5A10.4 10.4 0 01295 54.4c0 3-1 5.5-3.1 7.4-2.1 2-4.6 3-7.4 3h-7.2V79zm0-18.5h7.3c1.8 0 3.2-.6 4.3-1.9a6.3 6.3 0 000-8.4 5.5 5.5 0 00-4.3-2h-7.3v12.3zM303 79h-5V44h5v35zM314.8 80c-2.5 0-4.6-.7-6.3-2.2a7.2 7.2 0 01-2.5-5.7 7 7 0 013-6 12 12 0 017.3-2.2c2.6 0 4.7.5 6.4 1.5v-.7c0-1.7-.6-3.1-1.8-4.1a6.4 6.4 0 00-4.3-1.6c-1.3 0-2.4.3-3.5 1-1 .5-1.7 1.3-2.1 2.4l-4-1.7a9 9 0 013.2-4c1.6-1 3.7-1.7 6.3-1.7 3 0 5.5.9 7.5 2.6 2 1.8 3 4.3 3 7.5v14.1h-4.2V76h-.2a8.9 8.9 0 01-7.8 4zm.7-4c1.9 0 3.5-.7 5-2 1.5-1.4 2.2-3 2.2-4.8-1.2-1-3.1-1.6-5.6-1.6-2.1 0-3.8.5-4.8 1.4-1.1 1-1.7 2-1.7 3.3 0 1.1.5 2 1.5 2.7 1 .7 2.1 1 3.4 1zM336 90h-4.7l5.6-11.9L327 56h5l7 17h.1l7-17h4.9l-15 34zM112 33.6l2-1.7c.5.5 1 .9 1.7 1.1.6.3 1.4.4 2.2.4 1 0 1.9-.2 2.5-.7.6-.5 1-1.2 1-2.1 0-.9-.4-1.6-1-2-.6-.6-1.5-.8-2.7-.8h-1.8l.4-2.5h1.5c1 0 1.6-.2 2.2-.7.6-.4.8-1 .8-1.8 0-.7-.2-1.2-.6-1.6-.5-.5-1.2-.7-2-.7-1.4 0-2.7.5-4 1.5l-1.7-1.8a9 9 0 016-2.2c1.3 0 2.3.2 3.2.6.9.4 1.6 1 2 1.6.5.7.7 1.4.7 2.3 0 1-.3 1.9-1 2.5-.6.7-1.6 1.2-2.8 1.4 1.3.1 2.4.6 3.2 1.3.8.7 1.2 1.7 1.2 3 0 1-.3 2-.9 2.8a6 6 0 01-2.4 1.8c-1 .5-2.3.7-3.6.7-2.5 0-4.6-.8-6.1-2.4zM137.2 33.2c.2.3.5.5.8.6l-.7 2.1a4 4 0 01-1.9-.5c-.4-.3-.8-.8-1-1.4-.5.7-1 1.2-1.8 1.5a5 5 0 01-2.3.5c-1.3 0-2.3-.4-3.1-1.1a3.9 3.9 0 01-1.2-3c0-1.4.5-2.5 1.6-3.3 1-.7 2.5-1.1 4.5-1.1h1.7v-.8c0-.8-.2-1.4-.6-1.7-.4-.4-1-.6-2-.6-.9 0-2 .3-3.5.7L127 23c1.7-.6 3.3-.9 4.9-.9 3.4 0 5 1.5 5 4.6v5.6c0 .4.2.8.3 1zm-3.4-1.2v-2.7h-1.3c-2.1 0-3.1.8-3.1 2.3 0 .7.1 1.2.4 1.5.3.4.8.5 1.5.5 1 0 1.9-.5 2.5-1.6zM144.9 35H142V23h8l-.3 2.3h-4.8V35zM162.8 23.8A9 9 0 01164 29c0 1.4-.2 2.6-.6 3.6-.5 1-1 1.9-1.9 2.5-.8.6-1.7 1-2.9 1-1.4 0-2.5-.5-3.3-1.5v6.2l-3.3.3V22.4h2.9l.2 1.6c.5-.7 1-1.2 1.8-1.5.7-.3 1.4-.5 2.1-.5 1.7 0 3 .6 3.8 1.8zm-2.2 5.1c0-1.6-.2-2.7-.7-3.4a2 2 0 00-1.9-1.1c-.5 0-1 .2-1.5.5s-.9.7-1.2 1.3v6a3 3 0 002.5 1.3c1.8 0 2.8-1.5 2.8-4.6zM172.9 35.8a7.8 7.8 0 01-2.4 3.7c-1 .8-2.4 1.3-4.2 1.5l-.3-2.2a7 7 0 002-.6c.5-.2.9-.5 1.2-1 .3-.3.6-.8.8-1.4h-1L165 23h3.2l2.8 10.7 2.8-10.7h3.2l-4.1 12.8zM186 23a3 3 0 011.3 2.6c0 .8-.2 1.4-.7 1.9-.4.5-1.1.8-2 1 1 .2 2 .6 2.5 1 .6.6.9 1.3.9 2.3 0 1.3-.5 2.4-1.6 3.1-1 .7-2.5 1.1-4.2 1.1-2 0-3.8-.5-5.2-1.6l1.5-1.9 1.7.9c.6.2 1.2.2 1.9.2 1.7 0 2.6-.6 2.6-2 0-1.1-1-1.7-2.8-1.7H180l.2-2.2h1.4c.8 0 1.4-.2 1.8-.5.5-.3.7-.7.7-1.3 0-.6-.2-1-.6-1.2-.4-.3-.9-.4-1.5-.4s-1.2.1-1.7.3l-1.4.7-1.5-1.8a7 7 0 012.3-1.1 9 9 0 012.7-.4 6 6 0 013.5 1zM202 35h-2.8v-4.8a23.5 23.5 0 01.4-4.3l-4.5 9H192V23h2.8v4.8a24 24 0 01-.4 4.2l4.5-9h3.1v12zM216 23l-.4 2.2h-4V35h-3.4v-9.8H204V23h12zM226.5 27.8c1 .7 1.5 1.8 1.5 3 0 1.4-.5 2.4-1.6 3.2-1 .7-2.4 1-4.1 1H217V23h3.4v3.8h1.4c2.1 0 3.7.3 4.7 1zm-2 3c0-.7-.2-1.2-.6-1.6-.4-.3-1.2-.5-2.2-.5h-1.3V33h1.6c1.7 0 2.5-.7 2.5-2.2zM248 35h-3v-4.8a21.2 21.2 0 01.4-4.3l-5 9H237V23h3v4.8a21.7 21.7 0 01-.3 4.2l4.8-9h3.5v12zM258.7 23a3 3 0 011.6 2.6c0 .8-.3 1.4-.8 1.9s-1.2.8-2.3 1a6 6 0 012.9 1c.6.6.9 1.3.9 2.3 0 1.3-.6 2.4-1.7 3.1a8.6 8.6 0 01-4.6 1.1c-2.2 0-4.1-.5-5.7-1.6l1.7-1.9 1.8.9c.6.2 1.3.2 2 .2 2 0 2.9-.6 2.9-2 0-1.1-1-1.7-3-1.7h-2.1l.2-2.2h1.5c.9 0 1.6-.2 2-.5.5-.3.8-.7.8-1.3 0-.6-.2-1-.7-1.2-.4-.3-1-.4-1.7-.4l-1.8.3c-.5.1-1 .4-1.5.7l-1.6-1.8a8 8 0 012.4-1.1c.9-.3 1.9-.4 3-.4a7 7 0 013.8 1z" fill="#000"/>
</svg>
