<svg width="1870" height="599" viewBox="0 0 1870 599" fill="none" xmlns="http://www.w3.org/2000/svg">
<path d="M950.946 230.848C950.946 230.848 974.306 155.178 1029.42 139.298C1084.53 123.418 1240.55 35.6081 1313.42 15.9881C1386.29 -3.63194 1466.63 -11.3619 1543.23 29.3981C1619.83 70.1581 1817 106 1849 388C1941 529.5 1690.83 496.158 1690.83 496.158L913.586 466.268L950.946 230.848Z" fill="#F3F6F7"/>
<path d="M123.456 195.118C177.956 144.998 299.656 -40.1119 490.166 10.8681C680.676 61.8481 671.726 105.668 760.276 118.198C848.826 130.728 889.966 103.888 953.466 152.198C1016.97 200.508 1146.67 245.198 1146.67 245.198L1232.53 418.718L909.126 436.608L443.656 420.508C443.656 420.508 128.761 497.682 91.9558 363.498C74.2604 298.984 68.9556 245.238 123.456 195.118Z" fill="#F3F6F7"/>
<path d="M178.456 231.764C198.994 106.06 283.796 26.9441 454.626 58.2541C625.456 89.5641 646.926 157.854 708.626 168.424C770.326 178.994 896.456 153.184 955.486 213.044C1014.52 272.904 1103.46 319.498 1125.43 417.804C1147.4 516.11 585.236 405.284 585.236 405.284C585.236 405.284 272.452 504.24 202.456 371.498C176.63 322.522 169.528 286.408 178.456 231.764Z" fill="#EAEBF6"/>
<path d="M965.906 231.588C965.906 231.588 988.266 159.138 1041.04 143.928C1093.81 128.718 1243.18 44.6478 1312.94 25.8678C1382.7 7.0878 1459.63 -0.312162 1532.94 38.7178C1606.25 77.7478 1719.83 144 1745.5 182.5C1755.5 197.5 1836.77 314.832 1819 386C1944.5 518 1674.25 485.598 1674.25 485.598L930.126 456.938L965.906 231.588Z" fill="url(#paint0_linear_591_49)"/>
<g filter="url(#filter0_d_591_49)">
<path d="M1667.77 444.99C1667.77 444.99 1695.96 455.998 1709.96 488.498C1723.96 520.998 1764.46 553.8 1731.96 553.8C1699.46 553.8 1667.77 553.8 1667.77 553.8H169.456H31.9558C31.9558 553.8 21.7525 431.7 47.9558 366.498C75.2037 298.696 169.456 214.8 169.456 214.8C205.096 187.21 313.016 117.36 430.776 175.42C575.006 246.52 597.776 173.79 705.776 189.03C813.776 204.27 850.656 225.03 904.316 266.65C927.006 284.23 950.996 300.36 979.846 304.89C1010.73 309.74 1042.27 300.51 1072.46 307.83C1126.64 320.95 1163.65 366.75 1215.28 385.07C1279.78 407.96 1354.85 408.47 1422.2 413.55C1554.21 423.47 1628.04 435.85 1667.77 444.99Z" fill="url(#paint1_linear_591_49)"/>
</g>
<defs>
<filter id="filter0_d_591_49" x="0" y="137.998" width="1774.28" height="460.802" filterUnits="userSpaceOnUse" color-interpolation-filters="sRGB">
<feFlood flood-opacity="0" result="BackgroundImageFix"/>
<feColorMatrix in="SourceAlpha" type="matrix" values="0 0 0 0 0 0 0 0 0 0 0 0 0 0 0 0 0 0 127 0" result="hardAlpha"/>
<feOffset dy="15"/>
<feGaussianBlur stdDeviation="15"/>
<feComposite in2="hardAlpha" operator="out"/>
<feColorMatrix type="matrix" values="0 0 0 0 0.309804 0 0 0 0 0.337255 0 0 0 0 0.698039 0 0 0 0.2 0"/>
<feBlend mode="normal" in2="BackgroundImageFix" result="effect1_dropShadow_591_49"/>
<feBlend mode="normal" in="SourceGraphic" in2="effect1_dropShadow_591_49" result="shape"/>
</filter>
<linearGradient id="paint0_linear_591_49" x1="992.765" y1="10.5655" x2="1454.74" y2="238.7" gradientUnits="userSpaceOnUse">
<stop stop-color="#E5EAFC"/>
<stop offset="1" stop-color="#D9CEDB" stop-opacity="0.2"/>
</linearGradient>
<linearGradient id="paint1_linear_591_49" x1="1521.94" y1="425.325" x2="257.936" y2="481.325" gradientUnits="userSpaceOnUse">
<stop stop-color="#E5EAFC"/>
<stop offset="1" stop-color="#F1EDF1"/>
</linearGradient>
</defs>
</svg>
