<svg width="454" height="355" viewBox="0 0 454 355" fill="none" xmlns="http://www.w3.org/2000/svg">
<path d="M452.955 184.347C452.689 202.029 450.172 218.157 444.101 232.695C443.886 233.202 443.672 233.705 443.45 234.197C442.767 235.752 442.043 237.286 441.279 238.799C439.622 242.08 437.763 245.254 435.711 248.303C435.618 248.446 435.524 248.589 435.426 248.732C434.968 249.41 434.495 250.085 434.01 250.756C428.791 257.946 422.618 264.391 415.661 269.915C414.812 270.599 413.946 271.275 413.061 271.944C411.514 273.116 409.947 274.243 408.362 275.325C382.815 292.793 352.982 299.021 325.166 311.572C298.493 323.593 270.658 340.284 241.411 344.957C221.977 348.064 202.43 350.536 182.805 352.095C153.317 354.465 123.469 355.239 94.1169 350.919C57.7018 345.554 8.28809 315.468 0.947226 275.242C-0.45743 267.564 -0.266892 259.68 1.50699 252.079C1.66478 251.393 1.83513 250.715 2.01796 250.046C2.10061 249.738 2.187 249.43 2.27716 249.122C2.3523 248.856 2.43491 248.589 2.5138 248.322C2.91954 246.995 3.37165 245.708 3.87006 244.46C3.87401 244.443 3.88035 244.427 3.88886 244.411C4.02035 244.081 4.15177 243.754 4.29078 243.431C4.29078 243.39 4.32464 243.352 4.34342 243.311C4.43359 243.085 4.53127 242.864 4.63271 242.642C4.7642 242.338 4.90314 242.037 5.04215 241.741L5.16615 241.474C5.23377 241.339 5.29765 241.203 5.36151 241.072C5.50052 240.783 5.64324 240.497 5.78975 240.212C6.63119 238.56 7.56572 236.957 8.58867 235.411C8.59654 235.398 8.60526 235.385 8.61491 235.373C18.7584 220.091 36.5846 211.996 55.2449 208.585C65.4071 206.776 75.7483 206.181 86.051 206.812C121.271 208.897 154.884 220.039 189.605 225.166C195.414 226.006 201.269 226.499 207.138 226.643C220.907 227.018 234.848 225.813 248.339 224.265C271.075 221.658 293.936 217.353 315.56 209.749C330.734 204.419 344.649 198.175 354.056 184.546C358.644 177.897 362.028 170.512 364.951 163.006C367.622 156.165 371.184 148.471 371.188 141.011C371.188 140.568 371.188 140.128 371.188 139.685C371.013 135.34 370.373 131.027 369.279 126.818C369.129 126.217 368.974 125.619 368.813 125.023C365.924 114.358 362.498 103.941 358.095 93.7941C355.781 88.4597 353.211 83.208 351.423 77.667C348.962 70.1538 347.955 61.7465 350.897 54.3761C353.35 48.234 358.253 43.5233 363.404 39.5713C368.633 35.5555 371.477 31.0851 373.389 24.7439C374.178 22.1143 374.685 19.3082 374.005 16.656C371.883 8.41403 360 9.83775 353.782 10.8934C353.524 10.9577 353.251 10.9285 353.012 10.811C352.773 10.6935 352.584 10.4953 352.477 10.2514C352.37 10.0074 352.354 9.73356 352.429 9.47839C352.505 9.22323 352.669 9.00325 352.892 8.8573C361.533 2.287 383.935 -10.9664 394.848 17.6026C398.665 27.5914 399.071 37.678 395.032 47.6179C392.147 54.7254 387.233 61.9682 391.7 69.5941C393.041 71.8819 394.927 73.8278 396.869 75.6047C401.254 79.6242 406.209 82.9902 411.251 86.2509C414.098 88.0954 416.976 89.9023 419.794 91.7731C422.611 93.6439 425.403 95.6048 428.032 97.7197C429.034 98.5237 430.011 99.3539 430.963 100.21C433.38 102.366 435.589 104.744 437.56 107.314C439.498 109.885 441.193 112.632 442.62 115.519C442.62 115.541 442.643 115.567 442.658 115.594C447.542 125.387 449.642 136.597 450.968 147.307C451.637 152.713 452.095 158.137 452.399 163.573C452.918 173.641 453.106 174.321 452.955 184.347Z" fill="url(#paint0_linear_704_48)"/>
<path fill-rule="evenodd" clip-rule="evenodd" d="M452.956 184.347C452.689 202.029 450.172 218.156 444.101 232.694C443.887 233.202 443.672 233.705 443.451 234.197C442.767 235.752 442.043 237.286 441.279 238.799H441.167L406.123 238.837H406.104L80.0703 239.212L80.1868 237.882L80.7053 232.022L55.7448 209.08L55.2339 208.611C65.3961 206.802 75.7373 206.207 86.04 206.838C121.26 208.923 154.873 220.065 189.594 225.193C195.403 226.032 201.258 226.525 207.127 226.669C220.896 227.045 234.837 225.839 248.328 224.291C271.064 221.684 293.925 217.379 315.549 209.775C330.723 204.445 344.638 198.201 354.046 184.572C358.633 177.923 362.018 170.538 364.94 163.032C367.611 156.191 371.173 148.498 371.177 141.037C371.177 140.594 371.177 140.154 371.177 139.711C371.002 135.366 370.362 131.053 369.268 126.845H381.666V167.724L391.655 167.78V135.782H399.646V119.594H411.232V72.355H427.999V98.1554C429.111 99.0395 430.194 99.9536 431.249 100.898C432.376 101.916 433.465 102.971 434.502 104.08C435.291 104.911 436.042 105.769 436.756 106.653C437.124 107.096 437.482 107.547 437.831 108.005C439.627 110.385 441.213 112.917 442.572 115.571C442.572 115.594 442.594 115.62 442.609 115.646C447.493 125.44 449.593 136.649 450.919 147.359C451.588 152.765 452.047 158.19 452.351 163.626C452.918 173.641 453.106 174.321 452.956 184.347Z" fill="url(#paint1_linear_704_48)"/>
<path fill-rule="evenodd" clip-rule="evenodd" d="M390.93 135.782V197.213L354.819 193.198L350.612 192.728L350.672 189.035C351.691 187.826 352.667 186.546 353.598 185.196C358.189 178.551 361.571 171.165 364.493 163.659C365.245 161.706 366.09 159.685 366.894 157.622C368.908 152.446 370.726 146.995 370.73 141.664C370.73 141.221 370.73 140.778 370.711 140.335C370.533 135.902 369.873 131.502 368.742 127.213L380.888 126.837V167.716L390.878 167.773V135.774L390.93 135.782Z" fill="url(#paint2_linear_704_48)"/>
<path fill-rule="evenodd" clip-rule="evenodd" d="M406.209 119.594L405.424 231.244L405.42 232.022L405.375 238.307L405.371 238.848V238.852L405.353 238.848L401.562 238.303V119.594H406.209Z" fill="url(#paint3_linear_704_48)"/>
<path fill-rule="evenodd" clip-rule="evenodd" d="M415.481 84.2259L417.596 82.2913V234.4L414.737 233.536L415.481 84.2259Z" fill="url(#paint4_linear_704_48)"/>
<path fill-rule="evenodd" clip-rule="evenodd" d="M424.43 78.7826L426.545 76.8517L426.519 235.02L423.66 234.156L424.43 78.7826Z" fill="url(#paint5_linear_704_48)"/>
<path fill-rule="evenodd" clip-rule="evenodd" d="M436.012 106.653V234.832L433.153 233.964L433.754 104.08C434.536 104.911 435.288 105.769 436.012 106.653Z" fill="url(#paint6_linear_704_48)"/>
<path fill-rule="evenodd" clip-rule="evenodd" d="M445.532 124.395L444.101 232.694C443.887 233.202 443.673 233.705 443.451 234.197L443.312 234.156L441.223 233.525L441.246 232.281L443.165 118.34C444.047 120.321 444.836 122.339 445.532 124.395Z" fill="url(#paint7_linear_704_48)"/>
<g style="mix-blend-mode:multiply" opacity="0.2">
<path d="M439.269 242.443C438.701 243.47 438.111 244.486 437.5 245.493C437.376 245.7 437.248 245.906 437.124 246.113C436.865 246.538 436.598 246.958 436.328 247.379L436.26 247.484L383.293 248.303L323.018 249.242L288.695 249.776L220.941 250.831L34.2819 253.75L30.341 253.81L210.095 267.744L415.647 269.922H415.992C414.895 270.824 413.768 271.712 412.611 272.586C411.359 273.528 410.106 274.442 408.854 275.328H408.354L0.928671 275.264C-0.475985 267.587 -0.285446 259.702 1.48844 252.101C2.42245 247.984 3.86098 243.999 5.77129 240.234L391.223 242.195L439.269 242.443Z" fill="#AA86A1"/>
</g>
<path d="M30.356 253.81L437.492 245.493C437.368 245.7 437.241 245.906 437.117 246.113L288.703 249.783L220.948 250.839L34.2818 253.75L30.356 253.81Z" fill="#AA86A1"/>
<g style="mix-blend-mode:multiply" opacity="0.2">
<path d="M429.982 256.072C429.306 256.898 428.607 257.717 427.886 258.529L387.44 257.777L383.683 257.71L387.575 257.571L429.982 256.072Z" fill="#AA86A1"/>
</g>
<g style="mix-blend-mode:screen">
<path d="M436.317 247.379L436.249 247.484C435.538 248.591 434.8 249.686 434.036 250.768L383.293 248.303L381.234 248.202L436.317 247.379Z" fill="#935251"/>
</g>
<g style="mix-blend-mode:screen">
<path d="M34.2671 253.746L323.022 249.246L388.657 257.721L210.11 267.744L34.2671 253.746Z" fill="#9F6665"/>
</g>
<path fill-rule="evenodd" clip-rule="evenodd" d="M444.063 232.368C443.244 234.396 442.354 236.392 441.392 238.356L441.167 238.81C440.652 239.855 440.111 240.888 439.555 241.913L391.223 242.199L3.68994 244.486C4.29104 243.019 4.95351 241.603 5.67733 240.238C5.75246 240.091 5.83131 239.948 5.9102 239.802C6.27837 239.118 6.66285 238.447 7.06358 237.788C8.28118 235.769 9.64606 233.841 11.1472 232.022C12.6083 230.242 14.1899 228.563 15.8809 226.999C20.0135 223.209 24.6477 220.004 29.6534 217.476C38.8464 212.758 49.3243 209.892 59.8698 208.438C63.3361 208.814 66.8975 209.189 70.5542 209.565C74.2109 209.941 77.9677 210.328 81.8247 210.726C99.4744 212.506 119.089 214.323 140.668 216.177C156.77 219.682 172.834 223.416 189.131 225.824C192.189 226.274 195.269 226.62 198.369 226.86C201.123 227.078 203.892 227.236 206.665 227.296C220.433 227.672 234.375 226.47 247.87 224.918C249.643 224.715 251.417 224.501 253.193 224.276C297.678 226.943 347.167 229.317 401.547 231.109L405.409 231.237L414.733 231.53L417.577 231.616C422.108 231.752 426.673 231.884 431.271 232.015C435.514 232.14 439.778 232.257 444.063 232.368Z" fill="url(#paint8_linear_704_48)"/>
<defs>
<linearGradient id="paint0_linear_704_48" x1="436.02" y1="22.3154" x2="84.9645" y2="328.848" gradientUnits="userSpaceOnUse">
<stop stop-color="#E8E8F5"/>
<stop offset="1" stop-color="#D9CEDB" stop-opacity="0.2"/>
</linearGradient>
<linearGradient id="paint1_linear_704_48" x1="254.121" y1="239.212" x2="254.121" y2="72.355" gradientUnits="userSpaceOnUse">
<stop stop-color="#C7DBFF"/>
<stop offset="1" stop-color="#8990EC"/>
</linearGradient>
<linearGradient id="paint2_linear_704_48" x1="370.771" y1="197.225" x2="370.771" y2="126.845" gradientUnits="userSpaceOnUse">
<stop stop-color="#C7DBFF"/>
<stop offset="1" stop-color="#8990EC"/>
</linearGradient>
<linearGradient id="paint3_linear_704_48" x1="403.887" y1="238.852" x2="403.887" y2="119.594" gradientUnits="userSpaceOnUse">
<stop stop-color="#A8C7FF"/>
<stop offset="1" stop-color="#8289EB"/>
</linearGradient>
<linearGradient id="paint4_linear_704_48" x1="416.165" y1="234.4" x2="416.165" y2="82.2913" gradientUnits="userSpaceOnUse">
<stop stop-color="#A8C7FF"/>
<stop offset="1" stop-color="#8289EB"/>
</linearGradient>
<linearGradient id="paint5_linear_704_48" x1="425.102" y1="235.02" x2="425.102" y2="76.8517" gradientUnits="userSpaceOnUse">
<stop stop-color="#A8C7FF"/>
<stop offset="1" stop-color="#8289EB"/>
</linearGradient>
<linearGradient id="paint6_linear_704_48" x1="434.577" y1="234.832" x2="434.577" y2="104.08" gradientUnits="userSpaceOnUse">
<stop stop-color="#A8C7FF"/>
<stop offset="1" stop-color="#8289EB"/>
</linearGradient>
<linearGradient id="paint7_linear_704_48" x1="443.38" y1="234.208" x2="443.38" y2="118.351" gradientUnits="userSpaceOnUse">
<stop stop-color="#A8C7FF"/>
<stop offset="1" stop-color="#8289EB"/>
</linearGradient>
<linearGradient id="paint8_linear_704_48" x1="223.878" y1="244.486" x2="223.878" y2="208.438" gradientUnits="userSpaceOnUse">
<stop stop-color="#EBF2FF"/>
<stop offset="1" stop-color="#DEE0FA"/>
</linearGradient>
</defs>
</svg>
