<svg xmlns="http://www.w3.org/2000/svg" xmlns:xlink="http://www.w3.org/1999/xlink" fill="none" viewBox="0 0 1395 624">
  <path fill="url(#a)" d="M8.3 214.4S-4.3 104.9 94 120.5c52.9 8.4 72.8 63.8 118.4 87.1 33.8 17.3 73.3 18.5 110.5 13 60.6-9 119.6-26.4 175.4-51.7 54.7-25.1 103.7-66.7 166.8-65.4 39.9.9 76.3 18.7 113.5 31 38.2 12.7 79.8 9.2 118.6 1.8 57-10.8 114.6-28.5 173.1-24.8 57 3.6 109.9 27.1 155.6 62 123.4 94.2 199.3 246.4 142.7 309.5-56.7 63-176.8-30.6-221-32.3-44.3-1.6-109.3 15.2-173.4 49.2-64.2 34-142-26.4-203.7-35.5-61.7-9-178.1-28-279 16.1-101 44.1-181.9 138.4-285 72.8-103-65.5-80.7-100.7-99.3-171.1-18.6-70.5-99-167.8-99-167.8h.1Z"/>
  <path fill="url(#b)" d="M20 140s-2.4-110 94.2-85.4c51.8 13.2 66.5 70.2 109.8 97.7 32 20.4 71.3 25.1 108.8 23 61-3.3 121.6-14.8 179.5-35 56.8-20 109.4-56.8 172.1-49.6 39.6 4.5 74.2 25.6 110.1 41.4 36.9 16 78.6 16.5 118 12.8 57.7-5.5 116.7-17.8 174.6-8.7 56.5 8.9 107 37.2 149.2 76.2 114.1 105.2 175.5 263.8 113.3 321.4-62.3 57.5-173.2-47-217-52.6-44-5.8-110.2 4.9-177.3 32.8-67 28-138.8-39.4-199.4-54.2-60.7-14.8-174.8-44.4-279.4-9.9-104.5 34.6-194 120.9-290.5 46-96.5-74.8-71-107.7-83-179.6-12-71.8-83-176.2-83-176.2v-.1Z"/>
  <path fill="url(#c)" d="M999 75h209v258H999z"/>
  <defs>
    <linearGradient id="a" x1="113.5" x2="763.7" y1="115.1" y2="573.2" gradientUnits="userSpaceOnUse">
      <stop stop-color="#FEFEFE"/>
      <stop offset="1" stop-color="#D9CEDB" stop-opacity=".2"/>
    </linearGradient>
    <linearGradient id="b" x1="134" x2="738.9" y1="51" y2="567.5" gradientUnits="userSpaceOnUse">
      <stop stop-color="#E5EAFC"/>
      <stop offset="1" stop-color="#D9CEDB" stop-opacity=".2"/>
    </linearGradient>
    <pattern id="c" width="1" height="1" patternContentUnits="objectBoundingBox">
      <use xlink:href="#d" transform="scale(.00478 .00388)"/>
    </pattern>
  </defs>
</svg>
