<svg width="549" height="245" viewBox="0 0 549 245" fill="none" xmlns="http://www.w3.org/2000/svg">
<path d="M3.24991 84.2334C3.24991 84.2334 -1.7037 41.2326 36.9758 47.3642C57.7477 50.6554 65.5596 72.3965 83.4902 81.5844C96.7596 88.3819 112.297 88.8212 126.92 86.6404C150.671 83.0939 173.941 76.3918 195.845 66.3466C217.332 56.498 236.586 40.1487 261.381 40.6806C277.038 41.0199 291.347 48.0196 305.96 52.8551C320.982 57.8247 337.323 56.4592 352.556 53.567C374.949 49.3256 397.61 42.3395 420.581 43.7993C442.989 45.2247 463.761 54.4722 481.718 68.1726C530.203 105.176 560.029 164.991 537.772 189.769C515.514 214.547 468.31 177.749 450.928 177.106C433.546 176.463 408.02 183.051 382.812 196.429C357.605 209.806 327.049 186.062 302.79 182.485C278.53 178.907 232.794 171.494 193.15 188.811C153.507 206.129 121.687 243.16 81.1789 217.413C40.671 191.666 49.4605 177.846 42.1634 150.163C34.8663 122.479 3.24991 84.2334 3.24991 84.2334Z" fill="url(#paint0_linear_750_75)" fill-opacity="0.4"/>
<path d="M8.048 54.914C8.048 54.914 7.10691 11.7401 45.0393 21.4124C65.4102 26.6051 71.1688 48.9251 88.1644 59.7123C100.742 67.6932 116.167 69.5682 130.925 68.7559C154.895 67.4321 178.68 62.9292 201.415 54.9788C223.717 47.1852 244.4 32.7273 269.031 35.5515C284.584 37.3382 298.178 45.6164 312.275 51.7728C326.766 58.1002 343.159 58.2569 358.589 56.7944C381.274 54.6546 404.478 49.8131 427.208 53.3902C449.38 56.8809 469.199 67.9904 485.802 83.2624C530.63 124.509 554.769 186.689 530.315 209.241C505.861 231.793 462.289 190.869 445.046 188.621C427.804 186.374 401.785 190.554 375.452 201.509C349.119 212.463 320.908 186.048 297.091 180.248C273.275 174.448 228.438 162.849 187.37 176.381C146.303 189.913 111.194 223.751 73.2613 194.425C35.3289 165.098 45.36 152.184 40.6652 124.008C35.9703 95.8328 8.048 54.914 8.048 54.914Z" fill="url(#paint1_linear_750_75)" fill-opacity="0.4"/>
<defs>
<linearGradient id="paint0_linear_750_75" x1="48.6877" y1="40.668" x2="275.221" y2="249.326" gradientUnits="userSpaceOnUse">
<stop stop-color="#3F64B0"/>
<stop offset="1" stop-color="#8A92EC"/>
</linearGradient>
<linearGradient id="paint1_linear_750_75" x1="52.8288" y1="20" x2="290.006" y2="222.944" gradientUnits="userSpaceOnUse">
<stop stop-color="#3F64B0"/>
<stop offset="1" stop-color="#8A92EC"/>
</linearGradient>
</defs>
</svg>
