<svg width="1381" height="525" viewBox="0 0 1381 525" fill="none" xmlns="http://www.w3.org/2000/svg">
<path d="M1.3 163.4C1.3 163.4 -11.3 53.9 87 69.5C139.9 77.9 159.8 133.3 205.4 156.6C239.2 173.9 278.7 175.1 315.9 169.6C376.495 160.646 435.536 143.244 491.3 117.9C546 92.8 595 51.2 658.1 52.5C698 53.4 734.4 71.2 771.6 83.5C809.8 96.2 851.4 92.7 890.2 85.3C947.2 74.5 1004.8 56.8 1063.3 60.5C1120.3 64.1 1173.2 87.6 1218.9 122.5C1342.3 216.7 1418.2 368.9 1361.6 432C1304.9 495 1184.8 401.4 1140.6 399.7C1096.3 398.1 1031.3 414.9 967.2 448.9C903 482.9 825.2 422.5 763.5 413.4C701.8 404.4 585.4 385.4 484.5 429.5C383.5 473.6 302.6 567.9 199.5 502.3C96.5 436.8 118.8 401.6 100.2 331.2C81.6 260.7 1.2 163.4 1.2 163.4H1.3Z" fill="url(#paint0_linear_728_112)" fill-opacity="0.7"/>
<path d="M13 89.0033C13 89.001 13.0001 89.0021 13 88.9999C12.9984 88.9252 10.6328 -20.9918 107.2 3.59989C159 16.7999 173.7 73.7999 217 101.3C249 121.7 288.3 126.4 325.8 124.3C386.8 121 447.4 109.5 505.3 89.2999C562.1 69.2999 614.7 32.4999 677.4 39.6999C717 44.1999 751.6 65.2999 787.5 81.0999C824.4 97.0999 866.1 97.5999 905.5 93.8999C963.2 88.3999 1022.2 76.0999 1080.1 85.1999C1136.6 94.0999 1187.1 122.4 1229.3 161.4C1343.4 266.6 1404.8 425.2 1342.6 482.8C1280.3 540.3 1169.4 435.8 1125.6 430.2C1081.6 424.4 1015.4 435.1 948.3 463C881.3 491 809.5 423.6 748.9 408.8C688.2 394 574.1 364.4 469.5 398.9C365 433.5 275.5 519.8 179 444.9C82.5 370.1 108 337.2 96 265.3C84.0995 194.095 14.1728 90.8281 13.0146 89.1213C12.9792 89.0693 13 89.0662 13 89.0033Z" fill="url(#paint1_linear_728_112)" fill-opacity="0.4"/>
<defs>
<linearGradient id="paint0_linear_728_112" x1="116.932" y1="52.4702" x2="693.508" y2="583.467" gradientUnits="userSpaceOnUse">
<stop stop-color="#3F64B0"/>
<stop offset="1" stop-color="#8A92EC"/>
</linearGradient>
<linearGradient id="paint1_linear_728_112" x1="127.002" y1="0.0132049" x2="731.854" y2="516.499" gradientUnits="userSpaceOnUse">
<stop stop-color="#3F64B0"/>
<stop offset="1" stop-color="#8A92EC"/>
</linearGradient>
</defs>
</svg>
