<svg fill="none" xmlns="http://www.w3.org/2000/svg" viewBox="0 0 72 72">
  <path d="M71.8 21.2c-.2-3.9-.8-6.5-1.7-8.8A17.6 17.6 0 0059.6 2C57.3 1 54.7.4 51 .2 47 0 45.8 0 36 0S25 0 21.2.2c-3.9.2-6.5.8-8.8 1.7A17.6 17.6 0 002 12.4C1 14.7.4 17.4.2 21.1 0 25.1 0 26.2 0 36s0 11 .2 14.8c.2 3.9.8 6.5 1.7 8.8A17.9 17.9 0 0012.4 70c2.3.9 5 1.5 8.8 1.7 3.8.1 5 .2 14.8.2s11 0 14.8-.2c3.9-.2 6.5-.8 8.8-1.7 4.8-1.9 8.6-5.7 10.5-10.5.9-2.3 1.5-5 1.7-8.8.2-3.8.2-5 .2-14.8s0-11-.2-14.8zm-6.5 29.4c-.1 3.5-.7 5.4-1.2 6.6a12 12 0 01-6.8 6.9c-1.3.5-3.2 1-6.7 1.2-3.8.2-5 .2-14.6.2s-10.7 0-14.5-.2c-3.5-.1-5.4-.7-6.7-1.2a11 11 0 01-4.1-2.7A11.3 11.3 0 018 57.3C7.5 56 7 54 6.8 50.6c-.2-3.8-.3-5-.3-14.6s0-10.7.3-14.5c.1-3.5.7-5.4 1.2-6.7.6-1.6 1.5-3 2.7-4.1 1.2-1.2 2.6-2.1 4.1-2.7 1.3-.5 3.2-1.1 6.7-1.3 3.8-.1 5-.2 14.5-.2 9.7 0 10.8 0 14.6.2C54 7 56 7.5 57.3 8c1.5.6 3 1.5 4 2.7 1.3 1.1 2.2 2.6 2.8 4.1.5 1.3 1 3.2 1.2 6.7.2 3.8.2 5 .2 14.5 0 9.7 0 10.8-.2 14.6z" fill="url(#paint0_linear)"/>
  <path d="M36 17.5a18.5 18.5 0 100 37 18.5 18.5 0 000-37zM36 48a12 12 0 110-24 12 12 0 010 24z" fill="url(#paint1_linear)"/>
  <path d="M59.6 16.8a4.3 4.3 0 11-8.7 0 4.3 4.3 0 018.7 0z" fill="url(#paint2_linear)"/>
  <defs>
    <linearGradient id="paint0_linear" x1="0" y1="0" x2="86.3" y2="44" gradientUnits="userSpaceOnUse">
      <stop stop-color="#FFBD23"/>
      <stop offset="1" stop-color="#F26124"/>
    </linearGradient>
    <linearGradient id="paint1_linear" x1="17.5" y1="17.5" x2="61.8" y2="40.1" gradientUnits="userSpaceOnUse">
      <stop stop-color="#FFBD23"/>
      <stop offset="1" stop-color="#F26124"/>
    </linearGradient>
    <linearGradient id="paint2_linear" x1="50.9" y1="12.5" x2="61.3" y2="17.7" gradientUnits="userSpaceOnUse">
      <stop stop-color="#FFBD23"/>
      <stop offset="1" stop-color="#F26124"/>
    </linearGradient>
  </defs>
</svg>
