<svg fill="none" xmlns="http://www.w3.org/2000/svg" viewBox="0 0 86 50">
  <path d="M71.37 28.67c-1.4-1.75-1-2.52 0-4.08.02-.02 11.49-15.82 12.68-21.18.59-1.95 0-3.38-2.84-3.38h-9.4c-2.4 0-3.5 1.24-4.09 2.61 0 0-4.78 11.42-11.55 18.82-2.18 2.14-3.2 2.83-4.39 2.83-.58 0-1.49-.69-1.49-2.65V3.38c0-2.34-.67-3.38-2.65-3.38H32.85c-1.49 0-2.4 1.09-2.4 2.1 0 2.24 3.4 2.74 3.75 9v13.56c0 2.96-.54 3.51-1.75 3.51-3.19 0-10.95-11.46-15.55-24.59C15.96 1.04 15.05 0 12.63 0h-9.4C.52 0 0 1.24 0 2.61c0 2.43 3.2 14.55 14.87 30.55C22.64 44.07 33.59 50 43.55 50c5.98 0 6.72-1.32 6.72-3.58 0-10.43-.53-11.42 2.46-11.42 1.39 0 3.77.69 9.37 5.96C68.48 47.2 69.54 50 73.12 50h9.4c2.69 0 4.03-1.32 3.26-3.9-1.8-5.46-13.87-16.69-14.41-17.43z" fill="url(#paint0_linear)"/>
  <defs>
    <linearGradient id="paint0_linear" x1="0" y1="0" x2="73.37" y2="64.36" gradientUnits="userSpaceOnUse">
      <stop stop-color="#FFBD23"/>
      <stop offset="1" stop-color="#F26124"/>
    </linearGradient>
  </defs>
</svg>
