<svg fill="none" xmlns="http://www.w3.org/2000/svg" viewBox="0 0 85 60">
  <path d="M83 9c-1-3-4-6-7-7-7-2-34-2-34-2S16 0 9 2C6 3 3 6 2 9c-2 7-2 21-2 21s0 14 2 21c1 3 4 6 7 7 7 2 34 2 34 2s26 0 33-2c3-1 6-4 7-7 2-7 2-21 2-21s0-14-2-21zM34 43V17l22 13-22 13z" fill="url(#paint0_linear)"/>
  <defs>
    <linearGradient id="paint0_linear" x1="0" y1="0" x2="84.3" y2="60.9" gradientUnits="userSpaceOnUse">
      <stop stop-color="#FFBD23"/>
      <stop offset="1" stop-color="#F26124"/>
    </linearGradient>
  </defs>
</svg>
