<svg width="76" height="75" viewBox="0 0 76 75" fill="none" xmlns="http://www.w3.org/2000/svg">
<path d="M73.75 67.5H70V43.75C70 43.0625 69.4375 42.5 68.75 42.5C68.3438 42.5 67.9688 42.7031 67.7344 43.0312L50.2344 68.0312C49.8437 68.5937 49.9844 69.375 50.5469 69.7656C50.75 69.9062 51 69.9844 51.2656 69.9844H67.5156V73.7344C67.5156 74.4219 68.0781 74.9844 68.7656 74.9844C69.4531 74.9844 70.0156 74.4219 70.0156 73.7344V69.9844H73.7656C74.4531 69.9844 75.0156 69.4219 75.0156 68.7344C75.0156 68.0469 74.4375 67.5 73.75 67.5ZM67.5 67.5H53.6562L67.5 47.7187V67.5Z" fill="url(#paint0_linear)"/>
<path d="M51.25 72.5H36.4531L50.2187 56.2969C50.25 56.2656 50.2812 56.2188 50.3125 56.1875C52.9062 52.3594 52.0312 47.1719 48.3437 44.375C43.8594 41.1563 37.6094 42.1719 34.3906 46.6563C33.1719 48.3594 32.5156 50.3906 32.5156 52.5C32.5156 53.1875 33.0781 53.75 33.7656 53.75C34.4531 53.75 35.0156 53.1875 35.0156 52.5C35.0156 48.3594 38.375 45 42.5156 45C44.0781 45 45.6094 45.5 46.8906 46.4063C49.4687 48.3906 50.0781 52.0313 48.2656 54.7344L32.8125 72.9375C32.3594 73.4688 32.4375 74.25 32.9531 74.7032C33.1719 74.8907 33.4687 75 33.7656 75H51.2656C51.9531 75 52.5156 74.4375 52.5156 73.75C52.5156 73.0625 51.9375 72.5 51.25 72.5Z" fill="url(#paint1_linear)"/>
<path d="M33.7812 66.2813C33.8125 65.5938 33.2656 65.0156 32.5781 64.9844C16.2656 64.375 3.17187 51.3125 2.54687 35H7.5C8.1875 35 8.75 34.4375 8.75 33.75C8.75 33.0625 8.1875 32.5 7.5 32.5H2.54687C3.17187 16.2188 16.2188 3.17187 32.5 2.54687V6.25C32.5 6.9375 33.0625 7.5 33.75 7.5C34.4375 7.5 35 6.9375 35 6.25V2.54687C51.0625 3.17187 64.0156 15.875 64.9375 31.9219L60.0625 27.0469C59.5625 26.5625 58.7813 26.5781 58.2969 27.0781C57.8281 27.5625 57.8281 28.3281 58.2969 28.8125L65.2812 35.7969C65.4062 35.9531 65.5781 36.0781 65.7812 36.1562C65.8281 36.1719 65.875 36.1875 65.9375 36.1875C66.0156 36.2188 66.1094 36.2344 66.2031 36.25C66.2188 36.25 66.2344 36.25 66.2344 36.25H66.2656C66.3594 36.25 66.4531 36.2188 66.5469 36.1875C66.5937 36.1875 66.6562 36.1719 66.7031 36.1562C66.875 36.0937 67.0312 36 67.1562 35.875L74.2344 28.8125C74.7188 28.3125 74.7031 27.5313 74.2031 27.0469C73.7187 26.5781 72.9531 26.5781 72.4687 27.0469L67.4687 32.0469C66.5469 14.125 51.7813 0.046875 33.8438 0.015625C33.8125 0.015625 33.7813 0 33.75 0C33.7187 0 33.6875 0.015625 33.6562 0.015625C15.0937 0.046875 0.046875 15.0937 0.015625 33.6562C0.015625 33.6875 0 33.7187 0 33.75C0 33.7813 0.015625 33.8125 0.015625 33.8438C0.046875 51.9531 14.375 66.8125 32.4844 67.4844H32.5312C33.2031 67.4687 33.75 66.9375 33.7812 66.2813Z" fill="url(#paint2_linear)"/>
<path d="M50.5469 16.9531C50.0625 16.4687 49.2656 16.4687 48.7813 16.9531L35.3437 30.3906C34.3281 29.9375 33.1719 29.9375 32.1562 30.3906L25.7969 24.0313C25.2969 23.5469 24.5156 23.5625 24.0312 24.0625C23.5625 24.5469 23.5625 25.3125 24.0312 25.7969L30.375 32.1406C29.4844 34 30.2812 36.2344 32.1406 37.125C33.5781 37.8125 35.2812 37.5156 36.4062 36.3906C37.5312 35.2656 37.8281 33.5625 37.125 32.125L50.5469 18.7031C51.0312 18.2344 51.0312 17.4375 50.5469 16.9531ZM34.6406 34.6406C34.1406 35.1094 33.375 35.1094 32.875 34.6406C32.3906 34.1562 32.3906 33.3594 32.875 32.875C33.3594 32.3906 34.1562 32.3906 34.6406 32.875C35.125 33.3594 35.125 34.1406 34.6406 34.6406Z" fill="url(#paint3_linear)"/>
<defs>
<linearGradient id="paint0_linear" x1="62.5144" y1="42.5" x2="62.5144" y2="74.9844" gradientUnits="userSpaceOnUse">
<stop stop-color="#FFBD23"/>
<stop offset="1" stop-color="#F26124"/>
</linearGradient>
<linearGradient id="paint1_linear" x1="42.5153" y1="42.4956" x2="42.5153" y2="75" gradientUnits="userSpaceOnUse">
<stop stop-color="#FFBD23"/>
<stop offset="1" stop-color="#F26124"/>
</linearGradient>
<linearGradient id="paint2_linear" x1="37.294" y1="0" x2="37.294" y2="67.4844" gradientUnits="userSpaceOnUse">
<stop stop-color="#FFBD23"/>
<stop offset="1" stop-color="#F26124"/>
</linearGradient>
<linearGradient id="paint3_linear" x1="37.2949" y1="16.5898" x2="37.2949" y2="37.4921" gradientUnits="userSpaceOnUse">
<stop stop-color="#FFBD23"/>
<stop offset="1" stop-color="#F26124"/>
</linearGradient>
</defs>
</svg>
