<svg width="131" height="159" viewBox="0 0 131 159" fill="none" xmlns="http://www.w3.org/2000/svg">
<path d="M130.017 65.9C130.217 57.4 128.617 48.8 125.517 40.8C122.317 32.8 117.517 25.5 111.517 19.4C105.517 13.2 98.2167 8.4 90.2167 5C82.3167 1.8 73.6167 0 65.0167 0C56.4167 0 47.7167 1.8 39.8167 5.1C31.9167 8.4 24.5167 13.3 18.5167 19.5C12.5167 25.6 7.71672 33 4.51672 40.9C1.41672 48.9 -0.183282 57.4 0.0167185 65.9C0.0167185 66.6 0.0167169 67.2 0.116717 67.9C0.116717 68.9 0.0167185 69.8 0.0167185 70.8C0.0167185 106.7 65.0167 159 65.0167 159C65.0167 159 130.017 106.6 130.017 70.8C130.017 69.8 130.017 68.9 129.917 67.9C130.017 67.3 130.017 66.6 130.017 65.9Z" fill="url(#paint0_linear)"/>
<path d="M65.0167 95.5999C82.7451 95.5999 97.1168 81.2282 97.1168 63.4999C97.1168 45.7716 82.7451 31.3999 65.0167 31.3999C47.2884 31.3999 32.9167 45.7716 32.9167 63.4999C32.9167 81.2282 47.2884 95.5999 65.0167 95.5999Z" fill="#F1F2EA"/>
<defs>
<linearGradient id="paint0_linear" x1="0.0479185" y1="79.478" x2="130.081" y2="79.478" gradientUnits="userSpaceOnUse">
<stop stop-color="#FFBD23"/>
<stop offset="0.2058" stop-color="#FEBA23"/>
<stop offset="0.4051" stop-color="#FDAE23"/>
<stop offset="0.6019" stop-color="#FA9A23"/>
<stop offset="0.7971" stop-color="#F67F24"/>
<stop offset="0.9894" stop-color="#F15C24"/>
<stop offset="1" stop-color="#F15A24"/>
</linearGradient>
</defs>
</svg>
