<svg width="149" height="201" viewBox="0 0 149 201" fill="none" xmlns="http://www.w3.org/2000/svg">
<path d="M74.7 0H74.4C33.4 0 0 33.4 0 74.4C0 96.9 11.5 114.4 24.3 131.9L74.3 200.1L124.5 132C137.3 114.5 148.8 97 148.8 74.5C148.8 33.5 115.6 0.2 74.7 0V0ZM74.4 119.8C62.3327 119.8 50.7596 115.006 42.2266 106.473C33.6937 97.9405 28.9 86.3674 28.9 74.3C28.9 62.2327 33.6937 50.6595 42.2266 42.1266C50.7596 33.5937 62.3327 28.8 74.4 28.8C86.4674 28.8 98.0405 33.5937 106.573 42.1266C115.106 50.6595 119.9 62.2327 119.9 74.3C119.9 86.3674 115.106 97.9405 106.573 106.473C98.0405 115.006 86.4674 119.8 74.4 119.8V119.8Z" fill="url(#paint0_linear)"/>

<defs>
<linearGradient id="paint0_linear" x1="0" y1="100" x2="148.8" y2="100" gradientUnits="userSpaceOnUse">
<stop stop-color="#D85025"/>
<stop offset="1" stop-color="#EDBA19"/>
</linearGradient>
</defs>
</svg>
