<svg width="40" height="77" viewBox="0 0 40 77" fill="none" xmlns="http://www.w3.org/2000/svg">
<path d="M14.6079 5.90577C14.0617 5.90577 13.6135 5.45581 13.6135 4.90741C13.6135 4.35902 14.0617 3.90906 14.6079 3.90906H25.3922C25.9385 3.90906 26.3866 4.35902 26.3866 4.90741C26.3866 5.45581 25.9385 5.90577 25.3922 5.90577H14.6079Z" fill="url(#paint0_linear)"/>
<path d="M4.38375 77C1.96078 77 0 75.0314 0 72.5988V4.40121C0 1.96859 1.96078 0 4.38375 0H35.6162C38.0392 0 40 1.96859 40 4.40121V72.5988C40 75.0314 38.0392 77 35.6162 77H4.38375V77ZM1.9888 72.5847C1.9888 73.9065 3.06723 74.9892 4.38375 74.9892H35.6162C36.9328 74.9892 38.0112 73.9065 38.0112 72.5847V64.6963H1.9888V72.5847ZM1.9888 62.7137H38.0252V10.0961H1.9888V62.7137ZM4.38375 1.99671C3.06723 1.99671 1.9888 3.07944 1.9888 4.40121V8.09934H38.0252V4.40121C38.0252 3.07944 36.9468 1.99671 35.6302 1.99671H4.38375Z" fill="url(#paint1_linear)"/>
<path d="M20.0001 73.78C17.8152 73.78 16.0225 71.9801 16.0225 69.7865C16.0225 67.593 17.8012 65.7931 20.0001 65.7931C22.1849 65.7931 23.9776 67.593 23.9776 69.7865C23.9776 71.9942 22.1849 73.78 20.0001 73.78ZM20.0001 67.7898C18.9076 67.7898 18.0113 68.6897 18.0113 69.7865C18.0113 70.8833 18.9076 71.7833 20.0001 71.7833C21.0925 71.7833 21.9889 70.8833 21.9889 69.7865C21.9889 68.6757 21.0925 67.7898 20.0001 67.7898Z" fill="url(#paint2_linear)"/>
<path d="M28.8097 39.8077C27.8153 39.8077 26.8909 40.1311 26.1346 40.6935C26.1066 40.7076 26.0646 40.7357 26.0366 40.7498C26.0086 40.7779 25.9806 40.792 25.9666 40.8201C24.9442 41.6497 24.2859 42.9293 24.2859 44.3636C24.2859 46.8805 26.3167 48.9194 28.8237 48.9194C31.3307 48.9194 33.3615 46.8805 33.3615 44.3636C33.3475 41.8606 31.3167 39.8077 28.8097 39.8077ZM28.8097 47.907C26.8629 47.907 25.2803 46.3181 25.2803 44.3636C25.2803 43.3933 25.6724 42.5215 26.2887 41.8888L28.4175 44.6026C28.5156 44.7292 28.6696 44.7995 28.8097 44.7995C28.9217 44.7995 29.0338 44.7573 29.1178 44.687C29.3419 44.5182 29.3699 44.1948 29.2019 43.9698L27.087 41.2701C27.5912 40.9888 28.1794 40.8201 28.8097 40.8201C30.7565 40.8201 32.3391 42.409 32.3391 44.3636C32.3391 46.3181 30.7565 47.907 28.8097 47.907Z" fill="url(#paint3_linear)"/>
<path d="M14.0897 40.5951C12.395 38.8937 9.62194 38.8937 7.92726 40.5951C6.23258 42.2965 6.23258 45.0807 7.92726 46.7821C8.7816 47.6398 9.88804 48.0617 11.0085 48.0617C12.1289 48.0617 13.2354 47.6398 14.0897 46.7821C14.9161 45.9525 15.3642 44.8557 15.3642 43.6886C15.3782 42.5215 14.9161 41.4247 14.0897 40.5951ZM13.3894 46.079C12.0869 47.3867 9.95807 47.3867 8.64154 46.079C7.33902 44.7713 7.33902 42.634 8.64154 41.3122C9.94407 40.0045 12.0729 40.0045 13.3894 41.3122C13.8936 41.8184 14.2158 42.4653 14.3278 43.1543H11.0505C10.7704 43.1543 10.5463 43.3792 10.5463 43.6605C10.5463 43.9417 10.7704 44.1667 11.0505 44.1667H14.3278C14.2298 44.8838 13.9077 45.5447 13.3894 46.079Z" fill="url(#paint4_linear)"/>
<path d="M15.2663 50.8037C15.0702 50.8037 14.8881 50.7053 14.7761 50.5365C14.594 50.2693 14.6781 49.9038 14.9442 49.721C15.0142 49.6788 22.4091 44.7573 22.2271 38.964C22.2131 38.5281 22.115 38.2328 21.947 38.0922C21.5828 37.7829 20.6725 37.8953 19.7061 38.0078C18.2915 38.1766 16.5268 38.4016 15.0562 37.4594C14.3699 37.0235 14.0058 36.3627 13.9918 35.5612C13.9218 32.0599 20.3363 26.4353 22.5492 24.8886C22.8153 24.7058 23.1795 24.7761 23.3615 25.0433C23.5436 25.3104 23.4736 25.676 23.2075 25.8588C20.4484 27.7852 15.0982 32.9317 15.1542 35.519C15.1682 35.9408 15.3223 36.222 15.6725 36.447C16.7929 37.1642 18.2635 36.9814 19.552 36.8267C20.7845 36.672 21.947 36.5314 22.7033 37.1923C23.1374 37.5719 23.3615 38.1344 23.3895 38.9218C23.5856 45.3619 15.8965 50.4803 15.5744 50.6912C15.4904 50.7756 15.3783 50.8037 15.2663 50.8037Z" fill="url(#paint5_linear)"/>
<path d="M25.0703 25.2401C24.1879 25.2401 23.4736 24.523 23.4736 23.6371C23.4736 22.7512 24.1879 22.0341 25.0703 22.0341C25.9526 22.0341 26.6669 22.7512 26.6669 23.6371C26.6529 24.523 25.9386 25.2401 25.0703 25.2401ZM25.0703 22.7091C24.5661 22.7091 24.1459 23.1309 24.1459 23.6371C24.1459 24.1433 24.5661 24.5652 25.0703 24.5652C25.5745 24.5652 25.9946 24.1433 25.9946 23.6371C25.9946 23.1168 25.5745 22.7091 25.0703 22.7091Z" fill="url(#paint6_linear)"/>
<defs>
<linearGradient id="paint0_linear" x1="20.0001" y1="3.90906" x2="20.0001" y2="5.90577" gradientUnits="userSpaceOnUse">
<stop stop-color="#FFBD23"/>
<stop offset="1" stop-color="#F26124"/>
</linearGradient>
<linearGradient id="paint1_linear" x1="20" y1="0" x2="20" y2="77" gradientUnits="userSpaceOnUse">
<stop stop-color="#FFBD23"/>
<stop offset="1" stop-color="#F26124"/>
</linearGradient>
<linearGradient id="paint2_linear" x1="20.0001" y1="65.7931" x2="20.0001" y2="73.78" gradientUnits="userSpaceOnUse">
<stop stop-color="#FFBD23"/>
<stop offset="1" stop-color="#F26124"/>
</linearGradient>
<linearGradient id="paint3_linear" x1="28.8237" y1="39.8077" x2="28.8237" y2="48.9194" gradientUnits="userSpaceOnUse">
<stop stop-color="#FFBD23"/>
<stop offset="1" stop-color="#F26124"/>
</linearGradient>
<linearGradient id="paint4_linear" x1="11.0104" y1="39.319" x2="11.0104" y2="48.0617" gradientUnits="userSpaceOnUse">
<stop stop-color="#FFBD23"/>
<stop offset="1" stop-color="#F26124"/>
</linearGradient>
<linearGradient id="paint5_linear" x1="18.7271" y1="24.7867" x2="18.7271" y2="50.8037" gradientUnits="userSpaceOnUse">
<stop stop-color="#FFBD23"/>
<stop offset="1" stop-color="#F26124"/>
</linearGradient>
<linearGradient id="paint6_linear" x1="25.0703" y1="22.0341" x2="25.0703" y2="25.2401" gradientUnits="userSpaceOnUse">
<stop stop-color="#FFBD23"/>
<stop offset="1" stop-color="#F26124"/>
</linearGradient>
</defs>
</svg>
