<?xml version="1.0" encoding="utf-8"?>
<!-- Generator: Adobe Illustrator 24.1.1, SVG Export Plug-In . SVG Version: 6.00 Build 0)  -->
<svg version="1.1" id="Capa_1" xmlns="http://www.w3.org/2000/svg" xmlns:xlink="http://www.w3.org/1999/xlink" x="0px" y="0px"
	 viewBox="0 0 200 200.4" style="enable-background:new 0 0 200 200.4;" xml:space="preserve">
<style type="text/css">
	.st0{fill:#FFFFFF;}
</style>
<g>
	<g>
		<path class="st0" d="M194.8,147.1l-28-28c-10-10-27-6-31,7c-3,9-13,14-22,12c-20-5-46.9-31-51.9-51.9c-3-9,3-19,12-22
			c13-4,17-21,7-31l-28-28c-8-7-20-7-27,0l-19,19c-19,20,2,72.9,48.9,119.9S155.8,213,175.8,193l19-19
			C201.7,166.1,201.7,154.1,194.8,147.1z"/>
	</g>
</g>
</svg>
